<?xml version="1.0" encoding="iso-8859-1"?>
<!-- Generator: Adobe Illustrator 19.0.0, SVG Export Plug-In . SVG Version: 6.00 Build 0)  -->
<svg xmlns="http://www.w3.org/2000/svg" xmlns:xlink="http://www.w3.org/1999/xlink" version="1.1" id="Capa_1" x="0px" y="0px" viewBox="0 0 512 512" style="enable-background:new 0 0 512 512;" xml:space="preserve" width="512px" height="512px">
<g>
	<g>
		<rect x="90" width="61" height="30" fill="#0e4d8f"/>
	</g>
</g>
<g>
	<g>
		<rect x="181" width="61" height="30" fill="#0e4d8f"/>
	</g>
</g>
<g>
	<g>
		<rect x="272" width="60" height="30" fill="#0e4d8f"/>
	</g>
</g>
<g>
	<g>
		<rect x="362" width="60" height="30" fill="#0e4d8f"/>
	</g>
</g>
<g>
	<g>
		<path d="M452,0v30h30v30h30c0-7.259,0-52.693,0-60C504.741,0,459.307,0,452,0z" fill="#0e4d8f"/>
	</g>
</g>
<g>
	<g>
		<path d="M302,90v30h68.787l-120,120H30v-60H0c0,23.36,0,316.713,0,332c14.486,0,307.495,0,332,0v-30h-60V261.213l120-120V210h30    V90H302z M242,482H30V270h212V482z" fill="#0e4d8f"/>
	</g>
</g>
<g>
	<g>
		<rect y="90" width="30" height="60" fill="#0e4d8f"/>
	</g>
</g>
<g>
	<g>
		<path d="M0,0c0,7.259,0,52.693,0,60h30V30h30V0C52.741,0,7.307,0,0,0z" fill="#0e4d8f"/>
	</g>
</g>
<g>
	<g>
		<rect x="482" y="90" width="30" height="60" fill="#0e4d8f"/>
	</g>
</g>
<g>
	<g>
		<rect x="482" y="180" width="30" height="60" fill="#0e4d8f"/>
	</g>
</g>
<g>
	<g>
		<rect x="482" y="270" width="30" height="60" fill="#0e4d8f"/>
	</g>
</g>
<g>
	<g>
		<rect x="482" y="360" width="30" height="61" fill="#0e4d8f"/>
	</g>
</g>
<g>
	<g>
		<path d="M482,451v31h-30v30c7.259,0,52.693,0,60,0c0-21.407,0-39.627,0-61H482z" fill="#0e4d8f"/>
	</g>
</g>
<g>
	<g>
		<rect x="362" y="482" width="60" height="30" fill="#0e4d8f"/>
	</g>
</g>
<g>
</g>
<g>
</g>
<g>
</g>
<g>
</g>
<g>
</g>
<g>
</g>
<g>
</g>
<g>
</g>
<g>
</g>
<g>
</g>
<g>
</g>
<g>
</g>
<g>
</g>
<g>
</g>
<g>
</g>
</svg>
