<?xml version="1.0" encoding="UTF-8" standalone="no"?>
<!-- Generator: Adobe Illustrator 18.0.0, SVG Export Plug-In . SVG Version: 6.00 Build 0)  -->

<svg
   xmlns:dc="http://purl.org/dc/elements/1.1/"
   xmlns:cc="http://creativecommons.org/ns#"
   xmlns:rdf="http://www.w3.org/1999/02/22-rdf-syntax-ns#"
   xmlns:svg="http://www.w3.org/2000/svg"
   xmlns="http://www.w3.org/2000/svg"
   xmlns:sodipodi="http://sodipodi.sourceforge.net/DTD/sodipodi-0.dtd"
   xmlns:inkscape="http://www.inkscape.org/namespaces/inkscape"
   version="1.1"
   id="Capa_1"
   x="0px"
   y="0px"
   viewBox="0 0 220 220"
   style="enable-background:new 0 0 220 220;"
   xml:space="preserve"
   sodipodi:docname="ruble.svg"
   inkscape:version="0.92.2 5c3e80d, 2017-08-06"><metadata
     id="metadata1610"><rdf:RDF><cc:Work
         rdf:about=""><dc:format>image/svg+xml</dc:format><dc:type
           rdf:resource="http://purl.org/dc/dcmitype/StillImage" /></cc:Work></rdf:RDF></metadata><defs
     id="defs1608" /><sodipodi:namedview
     pagecolor="#ffffff"
     bordercolor="#666666"
     borderopacity="1"
     objecttolerance="10"
     gridtolerance="10"
     guidetolerance="10"
     inkscape:pageopacity="0"
     inkscape:pageshadow="2"
     inkscape:window-width="1440"
     inkscape:window-height="775"
     id="namedview1606"
     showgrid="false"
     inkscape:zoom="1.0727273"
     inkscape:cx="110"
     inkscape:cy="110"
     inkscape:window-x="0"
     inkscape:window-y="1"
     inkscape:window-maximized="1"
     inkscape:current-layer="Capa_1" /><g
     id="g1573"
     style="fill:#0e4d8f;fill-opacity:1"><path
       d="M110,0C49.346,0,0,49.346,0,110s49.346,110,110,110s110-49.346,110-110S170.654,0,110,0z M110,210   c-55.141,0-100-44.86-100-100S54.859,10,110,10s100,44.86,100,100S165.141,210,110,210z"
       id="path1563"
       style="fill:#0e4d8f;fill-opacity:1" /><path
       d="M110,19.5c-49.902,0-90.5,40.598-90.5,90.5s40.598,90.5,90.5,90.5s90.5-40.598,90.5-90.5S159.902,19.5,110,19.5z    M110,197.5c-48.248,0-87.5-39.252-87.5-87.5S61.752,22.5,110,22.5s87.5,39.252,87.5,87.5S158.248,197.5,110,197.5z"
       id="path1565"
       style="fill:#0e4d8f;fill-opacity:1" /><polygon
       points="103.382,133.87 93.382,133.87 93.382,144.887 84.632,144.887 84.632,154.887 112.132,154.887 112.132,144.887    103.382,144.887  "
       id="polygon1567"
       style="fill:#0e4d8f;fill-opacity:1" /><path
       d="M123.062,57.773H83.077v12h10.305v33.876H83.077v12h10.305v2.22h10v-2.22h19.68c15.957,0,28.938-12.981,28.938-28.938   S139.019,57.773,123.062,57.773z M123.062,103.65h-19.68V69.773h19.68c9.34,0,16.938,7.599,16.938,16.938   S132.401,103.65,123.062,103.65z"
       id="path1569"
       style="fill:#0e4d8f;fill-opacity:1" /><rect
       x="83.077"
       y="119.87"
       width="53.989"
       height="12"
       id="rect1571"
       style="fill:#0e4d8f;fill-opacity:1" /></g><g
     id="g1575" /><g
     id="g1577" /><g
     id="g1579" /><g
     id="g1581" /><g
     id="g1583" /><g
     id="g1585" /><g
     id="g1587" /><g
     id="g1589" /><g
     id="g1591" /><g
     id="g1593" /><g
     id="g1595" /><g
     id="g1597" /><g
     id="g1599" /><g
     id="g1601" /><g
     id="g1603" /></svg>